<svg id="Layer_1" data-name="Layer 1" xmlns="http://www.w3.org/2000/svg" viewBox="0 0 237.48 262.35"><defs><style>.cls-1{fill:#cbba2d;}.cls-2{fill:#eae350;}.cls-3{fill:#f9f39c;}</style></defs><title>Lemon</title><g id="Group_129" data-name="Group 129"><path id="Path_171" data-name="Path 171" class="cls-1" d="M116.27,137h.22v-.24Z"/><path id="Path_172" data-name="Path 172" class="cls-2" d="M116.49,137l93.7.7A92.83,92.83,0,0,0,181.82,71l-65.33,65.82Z"/><path id="Path_173" data-name="Path 173" class="cls-1" d="M116.49,137.23V137h-.21Z"/><path id="Path_174" data-name="Path 174" class="cls-1" d="M116.26,137h0Z"/><path id="Path_175" data-name="Path 175" class="cls-2" d="M116.49,136.78l-.45-92A92.86,92.86,0,0,0,51.2,72.07L116.27,137Z"/><path id="Path_176" data-name="Path 176" class="cls-2" d="M210.19,137.71l-93.7-.7v.21L183,203.62a92.79,92.79,0,0,0,27.17-65.73Z"/><path id="Path_177" data-name="Path 177" class="cls-2" d="M117,231h.12a92.81,92.81,0,0,0,66-27.39l-66.53-66.4Z"/><path id="Path_178" data-name="Path 178" class="cls-2" d="M116.27,137,51.2,72.06A92.85,92.85,0,0,0,24,136.33l92.29.69Z"/><path id="Path_179" data-name="Path 179" class="cls-2" d="M24,136.33c0,.52,0,1,0,1.56a92.84,92.84,0,0,0,26.68,65.25L116.26,137Z"/><path id="Path_180" data-name="Path 180" class="cls-2" d="M116.28,137h0L50.63,203.14A92.85,92.85,0,0,0,117,231l-.46-93.78Z"/><path id="Path_181" data-name="Path 181" class="cls-3" d="M130.07,38.47c1.34-13.07,18.21-16.5,31.54-11.21,13.54,5.37,22.12,21,13.5,29.79-4.73,4.84-19.25,19-19.25,19L140,91.74a5.61,5.61,0,0,1-9.55-3.94l-.19-22.26S129.38,45.2,130.07,38.47Z"/><path id="Path_182" data-name="Path 182" class="cls-3" d="M70.16,89.46c-8.32-10.17,1.14-24.55,14.3-30.27,13.35-5.8,30.48-.87,30.64,11.45.09,6.77-.09,27.07-.09,27.07L114.94,120a5.6,5.6,0,0,1-9.52,4L89.51,108.4S74.45,94.7,70.16,89.46Z"/><path id="Path_183" data-name="Path 183" class="cls-3" d="M165.16,90.2c10.2-8.29,24.54,1.23,30.21,14.41,5.75,13.38.76,30.49-11.56,30.6-6.77.07-27.08-.18-27.08-.18l-22.25-.16a5.61,5.61,0,0,1-4-9.54l15.63-15.85S159.9,94.46,165.16,90.2Z"/><path id="Path_184" data-name="Path 184" class="cls-3" d="M49.43,135.23c-13.06-1.44-16.36-18.34-11-31.63C44,90.11,59.63,81.65,68.37,90.34c4.8,4.77,18.88,19.4,18.88,19.4l15.52,16a5.61,5.61,0,0,1-4,9.52H76.5S56.16,136,49.43,135.23Z"/><path id="Path_185" data-name="Path 185" class="cls-3" d="M118.24,204.72c1.34,13.07,18.21,16.5,31.55,11.22,13.53-5.38,22.12-21,13.5-29.8-4.74-4.83-19.25-19-19.25-19l-15.83-15.65a5.61,5.61,0,0,0-9.55,3.94l-.19,22.25S117.56,198,118.24,204.72Z"/><path id="Path_186" data-name="Path 186" class="cls-3" d="M70.36,185.54c-8.32,10.17,1.14,24.55,14.3,30.27,13.35,5.8,30.48.87,30.64-11.45.09-6.76-.09-27.07-.09-27.07L115.14,155a5.61,5.61,0,0,0-9.52-4L89.71,166.61S74.64,180.3,70.36,185.54Z"/><path id="Path_187" data-name="Path 187" class="cls-3" d="M166.07,184.32c10.2,8.28,24.55-1.24,30.22-14.42,5.75-13.38.75-30.48-11.57-30.6-6.77-.06-27.07.19-27.07.19l-22.26.15a5.61,5.61,0,0,0-3.95,9.55L147.07,165S160.82,180.05,166.07,184.32Z"/><path id="Path_188" data-name="Path 188" class="cls-3" d="M50.34,138.28c-13.06,1.45-16.35,18.34-11,31.63,5.48,13.49,21.16,22,29.9,13.26,4.8-4.77,18.88-19.4,18.88-19.4l15.52-16a5.61,5.61,0,0,0-.11-7.93,5.7,5.7,0,0,0-3.91-1.59H77.42S57.07,137.54,50.34,138.28Z"/></g></svg>