<?xml version="1.0" encoding="utf-8"?>
<!-- Generator: Adobe Illustrator 23.0.6, SVG Export Plug-In . SVG Version: 6.00 Build 0)  -->
<svg version="1.1" id="Layer_1" xmlns="http://www.w3.org/2000/svg" xmlns:xlink="http://www.w3.org/1999/xlink" x="0px" y="0px"
	 viewBox="0 0 612 589.06" style="enable-background:new 0 0 612 589.06;" xml:space="preserve">
<g>
	<path d="M532.27,313.48c-25.96-46.33-52.14-92.53-78.53-138.62c-2.14-3.73-5.75-7.19-9.51-9.33
		c-44.29-25.24-88.8-50.11-133.08-75.37c-5.34-3.05-9.31-2.98-14.55,0c-44,25.04-88.2,49.73-132.17,74.85
		c-4.34,2.48-8.56,6.43-11.02,10.74c-26.17,45.81-52.03,91.79-77.76,137.84c-1.97,3.53-3.34,7.93-3.35,11.93
		c-0.14,62.35-0.03,175.25,0.04,228.01c0.02,15.78,12.85,28.54,28.63,28.48c21.95-0.09,51.66-0.19,70.83-0.19l264.1-0.22
		c33.53,0,65.94,0,99.47,0c0.21-2.64,0.66-5.66,0.67-8.68c0.07-81.84,0.15-163.67-0.04-245.51
		C535.98,322.73,534.55,317.56,532.27,313.48z"/>
	<path d="M600.41,312.11c-1.96-4.89-4.93-9.39-7.56-14c-30.31-53.22-60.5-106.51-91.17-159.52c-3.35-5.8-8.73-11.36-14.53-14.67
		c-56.56-32.31-113.46-64-170.09-96.18c-8.92-5.07-16.6-5.62-25.75-0.42c-57.54,32.73-115.34,65-172.87,97.75
		c-4.64,2.64-8.97,7.1-11.63,11.75c-32.18,56.22-64.05,112.62-95.9,169.03c-2.21,3.91-3.62,8.28-4.68,10.76
		c0.75,10.5,5.06,16.13,13.19,18.14c8.82,2.18,15.13-1.94,19.39-9.41c11.57-20.29,23-40.66,34.51-60.99
		c20.84-36.8,41.58-73.66,62.72-110.29c53.4-30.36,107.02-60.32,160.43-90.66c5.2-2.96,8.98-3.25,14.34-0.2
		c51.39,29.23,103.02,58.03,154.36,87.34c4.57,2.61,8.53,7.36,11.21,12.02c29.68,51.54,59.05,103.27,88.51,154.93
		c2.1,3.69,3.94,7.61,6.55,10.9c5.82,7.34,13.42,9.34,21.65,4.62C601.19,328.34,603.96,320.94,600.41,312.11z"/>
</g>
<g>
</g>
<g>
</g>
<g>
</g>
<g>
</g>
<g>
</g>
<g>
</g>
</svg>
