<svg id="Layer_1" data-name="Layer 1" xmlns="http://www.w3.org/2000/svg" viewBox="0 0 254.69 253.74"><defs><style>.cls-1{fill:#f9f39c;}.cls-2{fill:#eae550;}</style></defs><title>Lemon</title><g id="Group_131" data-name="Group 131"><path id="Path_204" data-name="Path 204" class="cls-1" d="M124.4,119.39h.22v-.24Z"/><path id="Path_205" data-name="Path 205" class="cls-1" d="M124.62,119.61v-.21h-.21Z"/><path id="Path_206" data-name="Path 206" class="cls-1" d="M124.39,119.4h0Z"/><path id="Path_207" data-name="Path 207" class="cls-2" d="M124.62,119.17l-.45-92A92.81,92.81,0,0,0,59.33,54.45l65.07,64.94Z"/><path id="Path_208" data-name="Path 208" class="cls-1" d="M138.2,20.85c1.34-13.07,18.21-16.5,31.55-11.21,13.53,5.38,22.11,21,13.5,29.8-4.74,4.83-19.26,19-19.26,19L148.17,74.12a5.61,5.61,0,0,1-9.55-3.94l-.19-22.25S137.51,27.59,138.2,20.85Z"/><path id="Path_209" data-name="Path 209" class="cls-1" d="M78.29,71.85C70,61.68,79.44,47.3,92.59,41.58c13.35-5.8,30.48-.88,30.64,11.44.09,6.77-.08,27.08-.08,27.08l-.07,22.25a5.61,5.61,0,0,1-9.53,4L97.64,90.78S82.58,77.08,78.29,71.85Z"/><path id="Path_210" data-name="Path 210" class="cls-1" d="M206.16,57.54c10.2-8.28,24.54,1.24,30.21,14.42,5.75,13.38.76,30.49-11.56,30.6-6.77.07-27.08-.18-27.08-.18l-22.25-.16a5.61,5.61,0,0,1-4-9.54l15.63-15.85S200.9,61.81,206.16,57.54Z"/><path id="Path_211" data-name="Path 211" class="cls-1" d="M23.29,107.63C10.23,106.18,6.93,89.28,12.33,76,17.81,62.5,33.49,54,42.23,62.73c4.8,4.78,18.88,19.4,18.88,19.4l15.52,16a5.6,5.6,0,0,1-4,9.52H50.36S30,108.37,23.29,107.63Z"/><path id="Path_212" data-name="Path 212" class="cls-1" d="M142.65,216.5c1.34,13.07,18.21,16.5,31.54,11.21,13.53-5.37,22.12-21,13.5-29.79-4.73-4.84-19.25-19-19.25-19l-15.82-15.65a5.61,5.61,0,0,0-9.55,3.94l-.19,22.26S142,209.77,142.65,216.5Z"/><path id="Path_213" data-name="Path 213" class="cls-1" d="M66.27,198.76C58,208.93,67.41,223.31,80.57,229c13.35,5.8,30.48.87,30.64-11.45.09-6.77-.09-27.07-.09-27.07l-.07-22.26a5.6,5.6,0,0,0-9.52-4L85.62,179.83S70.55,193.52,66.27,198.76Z"/><path id="Path_214" data-name="Path 214" class="cls-1" d="M204,177.24c10.2,8.28,24.54-1.24,30.21-14.42,5.75-13.38.76-30.49-11.56-30.6-6.77-.07-27.07.18-27.07.18l-22.26.16a5.6,5.6,0,0,0-4,9.54L185,158S198.72,173,204,177.24Z"/><path id="Path_215" data-name="Path 215" class="cls-1" d="M25.63,137.55c-13.06,1.45-16.36,18.34-11,31.63,5.48,13.49,21.16,21.95,29.9,13.26,4.8-4.77,18.88-19.4,18.88-19.4L79,147.09a5.6,5.6,0,0,0-4-9.51H52.7S32.35,136.81,25.63,137.55Z"/></g></svg>