<?xml version="1.0" encoding="utf-8"?>
<!-- Generator: Adobe Illustrator 23.0.6, SVG Export Plug-In . SVG Version: 6.00 Build 0)  -->
<svg version="1.1" id="Layer_1" xmlns="http://www.w3.org/2000/svg" xmlns:xlink="http://www.w3.org/1999/xlink" x="0px" y="0px"
	 viewBox="0 0 612 589.06" style="enable-background:new 0 0 612 589.06;" xml:space="preserve">
<path d="M563,301c0-29.32-21.76-53.54-50.01-57.44C519.34,233.3,523,221.32,523,208.5c0-37.83-31.79-68.5-71-68.5
	c-20.92,0-39.72,8.73-52.72,22.62c-5.81-2.33-12.14-3.62-18.78-3.62c-24.67,0-45.2,17.7-49.61,41.09
	c-7.96-2.02-16.3-3.09-24.89-3.09c-2,0-3.99,0.06-5.96,0.18C288.53,177.35,267.08,164,242.5,164c-24.2,0-45.38,12.93-57.01,32.25
	C174.96,187.37,161.36,182,146.5,182c-33.41,0-60.5,27.09-60.5,60.5c0,12.44,3.76,24.01,10.2,33.62c-1.06-0.07-2.12-0.12-3.2-0.12
	c-25.41,0-46,20.59-46,46s20.59,46,46,46c7.42,0,14.42-1.77,20.62-4.88C128.16,381.9,150.91,394,176.5,394
	c22.76,0,43.27-9.58,57.76-24.91C252.57,387.56,277.95,399,306,399c22.97,0,44.14-7.67,61.1-20.58C372.98,411.71,402.03,437,437,437
	c39.21,0,71-31.79,71-71c0-2.39-0.12-4.74-0.35-7.07C538.45,357.55,563,332.14,563,301z"/>
</svg>
