<?xml version="1.0" encoding="utf-8"?>
<!-- Generator: Adobe Illustrator 23.0.6, SVG Export Plug-In . SVG Version: 6.00 Build 0)  -->
<svg version="1.1" id="Layer_1" xmlns="http://www.w3.org/2000/svg" xmlns:xlink="http://www.w3.org/1999/xlink" x="0px" y="0px"
	 viewBox="0 0 612 589.06" style="enable-background:new 0 0 612 589.06;" xml:space="preserve">
<path d="M497.92,241.44c-22.81,1.79-35.12,1.74-52.77-1.07l-31.58-6.9l9.16-59.23c0.31-0.63,0.53-1.27,0.63-1.94
	c1.99-12.85-23.84-35.8-83.14-47.74c-4.82-0.97-9.86-1.87-15.12-2.68c-6.91-1.07-13.51-1.87-19.81-2.44
	c-55.13-5-86.32,8.01-88.98,20.35c-0.24-0.3-0.35-0.47-0.35-0.47l-9.65,62.42l-0.12-0.01c-8.33-0.91-16.49-1.78-24.43-2.62
	c-29.31-3.09-40.89-5.94-68.41-17.11c-31.78-12.89-78.09-49.38-84.24-6.27c-2.1,14.77,27.37,69.52,138.01,109.06
	c-0.34,0.84-0.67,1.69-0.99,2.54c-9.34,24.75-6.85,52.93,1,78.34l-64.35-23.99c0-0.03-0.01-0.06-0.02-0.09
	c-0.04-0.25-0.08-0.5-0.16-0.75l-6.75-21.06c-0.98-3.04-4.22-4.7-7.25-3.77c-0.02,0-0.03,0-0.05,0.01c-3.05,0.98-4.74,4.25-3.76,7.3
	l4.22,13.17l-2.97-1.12c0,0,0-0.01,0-0.01c-0.04-0.26-0.08-0.52-0.17-0.78l-6.75-21.06c-0.98-3.06-4.25-4.73-7.3-3.76
	c-3.05,0.98-4.74,4.25-3.76,7.3l4.2,13.12l-3.83-1.45c0-0.03-0.01-0.06-0.02-0.08c-0.04-0.23-0.07-0.45-0.14-0.67l-6.75-21.06
	c-0.97-3.04-4.2-4.7-7.23-3.77c-0.02,0.01-0.05,0.01-0.07,0.01c-3.05,0.98-4.74,4.25-3.76,7.3l4.19,13.09l-10.77-4.06
	c-2.99-1.14-6.35,0.38-7.48,3.38c-1.13,3,0.38,6.35,3.38,7.48l10.1,3.81l-10.84,7.03c-2.69,1.74-3.45,5.34-1.71,8.03
	c1,1.55,2.62,2.46,4.32,2.62c1.26,0.12,2.56-0.17,3.71-0.91l18-11.68l3.43,1.29l-10.85,7.04c-2.69,1.74-3.46,5.34-1.71,8.03
	c1.01,1.55,2.62,2.46,4.33,2.62c1.26,0.12,2.56-0.17,3.71-0.91l18.02-11.69l3.34,1.26l-10.83,7.03c-2.31,1.5-3.19,4.35-2.29,6.83
	c0.15,0.41,0.33,0.81,0.58,1.19c1.01,1.55,2.62,2.46,4.33,2.62c1.26,0.12,2.56-0.17,3.71-0.91l18-11.68l75.05,27.99
	c3.82,9.52,8.28,18.42,12.99,26.32c9.12,14.44,19.62,27.77,31.35,39.83c14.68,15.9,29.8,24.14,44.92,24.46
	c2.21,0.05,4.41-0.08,6.62-0.37c12.01-1.6,18.72-8.18,26.78-8.35c11.43-0.23,22.93,13.22,41.86,9.49
	c26.17-5.16,49.71-33.54,62.23-54.42c17.02-28.37,26.67-64.96,27.36-94.21c109.44-6.43,151.44-47.53,153.81-61.79
	C587.28,217.94,532.1,238.75,497.92,241.44z M96.37,348.17l-19.28,12.3L96.37,348.17l73.85,26.65c0,0,0,0,0,0L96.37,348.17z"/>
</svg>
