<?xml version="1.0" encoding="utf-8"?>
<!-- Generator: Adobe Illustrator 23.0.6, SVG Export Plug-In . SVG Version: 6.00 Build 0)  -->
<svg version="1.1" id="Layer_1" xmlns="http://www.w3.org/2000/svg" xmlns:xlink="http://www.w3.org/1999/xlink" x="0px" y="0px"
	 viewBox="0 0 216 216" style="enable-background:new 0 0 216 216;" xml:space="preserve">
<style type="text/css">
	.st0{fill:#B59651;}
	.st1{fill:#806630;}
	.st2{fill:#C13B3A;}
	.st3{fill:#972E2D;}
	.st4{fill:#D86B6A;}
	.st5{fill:#E0BD65;}
	.st6{fill:#3C3C3C;}
</style>
<g>
	<g>
		<path class="st0" d="M76.93,135.46L43.26,122.9c0-0.01,0-0.02-0.01-0.03c0,0,0,0,0,0l-1.59-0.59l-1.77-5.81
			c0,0-0.47-1.92-1.17-1.79c-0.01,0-0.01,0-0.02,0c-0.98,0.31-1.52,1.36-1.2,2.34l1.35,4.22l-0.95-0.36c0,0,0,0,0,0l-1.59-0.59
			l-1.77-5.81c0,0-0.48-1.96-1.19-1.8c-0.98,0.31-1.52,1.36-1.2,2.34l1.35,4.2l-1.23-0.46c0-0.01,0-0.02-0.01-0.03c0,0,0,0,0,0
			l-1.59-0.59l-1.77-5.79c0,0-0.47-1.89-1.16-1.79c-0.01,0-0.02,0-0.02,0c-0.98,0.31-1.52,1.36-1.2,2.34l1.34,4.19l-3.45-1.3
			c-0.96-0.36-2.03,0.12-2.4,1.08c-0.2,0.93,1.1,1.47,1.1,1.47l4.18,1.55l-0.97,0.6l-3.47,2.25c-0.86,0.56-1.11,1.71-0.55,2.57
			c0.69,0.54,2.05-0.45,2.05-0.45l5.85-3.79l2.43,0.89l-0.88,0.56l-3.48,2.26c-0.86,0.56-1.11,1.71-0.55,2.57
			c0.97,0.53,2.21-0.44,2.21-0.44l5.75-3.68l2.3,0.87l-0.85,0.45l-3.47,2.25c-0.74,0.48-1.02,1.4-0.73,2.19
			c0.02,0.01,0.03,0.01,0.06,0.04c0.82,0.82,2.05-0.12,2.05-0.12l6.18-3.94l36.61,13.21c0.07-0.11,0.15-0.21,0.2-0.34
			C78.38,136.9,77.89,135.82,76.93,135.46z"/>
		<path class="st1" d="M34.49,130.23c0.4,0.04,0.82-0.05,1.19-0.29l5.77-3.74l34.17,12.74c0.16,0.06,0.32,0.1,0.48,0.11
			c0.69,0.07,1.34-0.27,1.72-0.86L41.2,124.99l-6.18,3.94c0,0-1.23,0.94-2.05,0.12c-0.03-0.03-0.04-0.03-0.06-0.04
			c0.05,0.13,0.11,0.26,0.19,0.38C33.43,129.89,33.95,130.18,34.49,130.23z"/>
		<path class="st1" d="M35.67,123.24l-5.75,3.68c0,0-1.23,0.97-2.21,0.44c0.32,0.5,0.84,0.79,1.39,0.84
			c0.4,0.04,0.82-0.05,1.19-0.29l5.77-3.75l1.07,0.4l0.85-0.45L35.67,123.24z"/>
		<path class="st1" d="M30.2,121.08l-5.85,3.79c0,0-1.37,0.98-2.05,0.45c0.32,0.5,0.84,0.79,1.38,0.84c0.4,0.04,0.82-0.05,1.19-0.29
			l5.77-3.74l1.1,0.41l0.88-0.56L30.2,121.08z"/>
		<g>
			<path class="st1" d="M34.54,114.47l1.77,5.81l1.59,0.59c-0.01-0.08-0.03-0.17-0.05-0.25l-2.16-6.75
				c-0.31-0.98-1.36-1.52-2.34-1.2C34.05,112.51,34.54,114.47,34.54,114.47z"/>
			<path class="st1" d="M39.89,116.47l1.77,5.81l1.59,0.59c0,0,0,0,0,0c-0.01-0.08-0.03-0.16-0.05-0.24l-2.16-6.75
				c-0.31-0.97-1.35-1.51-2.32-1.21C39.41,114.55,39.89,116.47,39.89,116.47z"/>
			<path class="st1" d="M28.89,112.35l1.77,5.79l1.59,0.59c0,0,0,0,0,0c-0.01-0.07-0.02-0.14-0.05-0.22l-2.16-6.75
				c-0.31-0.97-1.35-1.5-2.32-1.21C28.42,110.46,28.89,112.35,28.89,112.35z"/>
		</g>
		<path class="st1" d="M23.1,118.34c0,0-1.3-0.54-1.1-1.47c-0.36,0.96,0.12,2.03,1.08,2.4l3.23,1.22l0.97-0.6L23.1,118.34z"/>
	</g>
	<g>
		<g>
			<path class="st2" d="M131.7,125.55c-4.91,22.1-23.01,29.42-31.69,29.43c-10.92,0.01-22.49-3.63-30.36-11.38
				c-6.06-10.17-10.85-25.52-6.1-38.1c1.39-3.8,3.7-7.24,6.71-9.99c6.03-5.4,19.23-10.54,28.33-6.15c0.74,0.36,1.49,0.77,2.25,1.2
				c1.63,0.91,2.89,1.57,3.98,1.8l-9.82-13.51c-1-1.38-0.7-3.3,0.68-4.3c1.38-1,3.3-0.7,4.3,0.68l10.21,14.04
				c0.16,0.22,0.28,0.46,0.37,0.7c3.34-1.72,7.08-2.43,10.73-2.07c1.4,0.1,2.73,0.29,4.04,0.54l-0.13,0.02
				C125.2,88.46,136.61,103.45,131.7,125.55z"/>
			<path class="st3" d="M146.84,113.25c0.62,9.8-2.53,23.47-8.7,33.76c-4.01,6.69-11.55,15.78-19.94,17.43
				c-6.07,1.2-9.75-3.11-13.41-3.04c-2.58,0.05-4.73,2.16-8.58,2.67c-0.71,0.09-1.41,0.13-2.12,0.12c-4.84-0.1-9.69-2.74-14.39-7.83
				c-3.76-3.86-7.12-8.13-10.04-12.76c7.87,7.75,19.44,11.39,30.36,11.38c8.68-0.01,26.78-7.32,31.69-29.43
				c4.91-22.1-6.51-37.09-6.51-37.09l0.13-0.02C137.88,90.81,146.01,100,146.84,113.25z"/>
			<path class="st4" d="M70.1,104.38c-1.94,1.68-3.65,5.83-3.45,12.2c0.2,6.36,1.82,12.02,3.9,14.87s3.94,1.52,4.48,0.03
				c0.55-1.49-1.03-6.44-1.78-9.25c-0.75-2.81-1.16-6.38-0.45-11.28c0.45-3.1,1.06-4.32,0.26-5.8S71.06,103.54,70.1,104.38z"/>
		</g>
		<g>
			<path class="st5" d="M19.66,69.74c1.97-13.81,16.81-2.12,26.99,2.01c8.82,3.58,12.53,4.49,21.92,5.48
				c11.87,1.25,25.23,2.71,39.28,4.87l0,0c0.09,0.01,0.18,0.03,0.27,0.04c0.09,0.01,0.18,0.03,0.27,0.04l0,0
				c14.05,2.19,27.22,4.82,38.92,7.22c9.25,1.89,13.06,2.14,22.55,1.39c10.95-0.86,28.63-7.53,26.33,6.23
				c-1.02,6.12-24.8,27.66-92.77,17.29l0,0c-0.09-0.01-0.18-0.03-0.27-0.04c-0.09-0.01-0.18-0.03-0.27-0.04l0,0
				C34.94,103.6,18.78,75.88,19.66,69.74z"/>
			<path class="st0" d="M66.7,77.18l12.59,1.16l31.09,4.88l31.11,4.73l12.35,2.7c0,0,6.08,3.93,0.97,11.02
				c-4.02,5.58-16.26,13.82-47.34,9.41l0,0.02c-0.47-0.07-0.91-0.15-1.37-0.22c-0.46-0.07-0.91-0.13-1.38-0.2l0-0.02
				c-30.96-5.18-40.14-16.73-42.28-23.26C59.71,79.09,66.7,77.18,66.7,77.18z"/>
			<path class="st5" d="M74.6,89.85c0,0,13.3,11.16,32.37,14.11c14.85,2.3,34.02-3.85,34.02-3.85l4.91-31.78
				c0,0-7.15,4.97-33.92,0.83C83.73,64.8,79.51,58.08,79.51,58.08L74.6,89.85z"/>
			<path class="st6" d="M74.6,89.85c0,0,4.31,9.77,32.37,14.11c26.41,4.08,34.02-3.85,34.02-3.85l0.94-6.08
				c0,0-6.14,8.16-34.38,3.79c-27.69-4.28-32-14.05-32-14.05L74.6,89.85z"/>
			<path class="st6" d="M145.96,68.64c0.64-4.12-7.64-11.47-26.63-15.29c-1.54-0.31-3.16-0.6-4.84-0.86
				c-2.21-0.34-4.33-0.6-6.34-0.78c-17.9-1.62-27.92,2.68-28.54,6.68c-0.69,4.45,13.61,10.36,31.94,13.19
				C129.85,74.41,145.27,73.09,145.96,68.64z"/>
		</g>
	</g>
</g>
</svg>
