<svg id="Layer_1" data-name="Layer 1" xmlns="http://www.w3.org/2000/svg" viewBox="0 0 256.61 262.35"><defs><style>.cls-1{fill:#cbba2d;}.cls-2{fill:#eae350;}.cls-3{fill:#f8f39b;}</style></defs><title>Lemon</title><g id="Group_130" data-name="Group 130"><path id="Path_189" data-name="Path 189" class="cls-1" d="M117.84,137h.22v-.24Z"/><path id="Path_190" data-name="Path 190" class="cls-1" d="M118.06,137.23V137h-.21Z"/><path id="Path_191" data-name="Path 191" class="cls-1" d="M117.83,137h0Z"/><path id="Path_192" data-name="Path 192" class="cls-2" d="M118.06,136.78l-.45-92A92.85,92.85,0,0,0,52.77,72.07L117.84,137Z"/><path id="Path_193" data-name="Path 193" class="cls-2" d="M117.84,137,52.77,72.06a92.81,92.81,0,0,0-27.24,64.27l92.3.69Z"/><path id="Path_194" data-name="Path 194" class="cls-2" d="M25.53,136.33c0,.52,0,1,0,1.56A92.85,92.85,0,0,0,52.2,203.14L117.82,137Z"/><path id="Path_195" data-name="Path 195" class="cls-2" d="M117.85,137h0L52.2,203.14A92.85,92.85,0,0,0,118.52,231l-.46-93.78Z"/><path id="Path_196" data-name="Path 196" class="cls-3" d="M131.64,38.47C133,25.4,149.85,22,163.18,27.26c13.54,5.37,22.12,21,13.5,29.79-4.73,4.84-19.25,19-19.25,19L141.61,91.74a5.61,5.61,0,0,1-9.55-3.94l-.19-22.26S131,45.2,131.64,38.47Z"/><path id="Path_197" data-name="Path 197" class="cls-3" d="M71.73,89.46C63.41,79.29,72.87,64.91,86,59.19c13.35-5.8,30.48-.87,30.64,11.45.09,6.77-.08,27.07-.08,27.07L116.52,120a5.61,5.61,0,0,1-9.53,4L91.08,108.4S76,94.7,71.73,89.46Z"/><path id="Path_198" data-name="Path 198" class="cls-3" d="M199.59,75.16c10.2-8.28,24.55,1.24,30.22,14.42,5.75,13.38.75,30.48-11.57,30.6-6.76.06-27.07-.19-27.07-.19l-22.26-.15a5.61,5.61,0,0,1-3.95-9.55l15.63-15.85S194.34,79.42,199.59,75.16Z"/><path id="Path_199" data-name="Path 199" class="cls-3" d="M51,135.23c-13.06-1.44-16.35-18.34-11-31.63,5.48-13.49,21.16-21.95,29.9-13.26,4.8,4.77,18.88,19.4,18.88,19.4l15.52,16a5.61,5.61,0,0,1-4,9.52H78.07S57.72,136,51,135.23Z"/><path id="Path_200" data-name="Path 200" class="cls-3" d="M136.09,234.12c1.33,13.07,18.2,16.5,31.54,11.21,13.53-5.37,22.12-21,13.5-29.8-4.73-4.83-19.25-19-19.25-19l-15.82-15.65a5.61,5.61,0,0,0-9.55,3.94L136.32,207S135.4,227.38,136.09,234.12Z"/><path id="Path_201" data-name="Path 201" class="cls-3" d="M71.92,185.54c-8.32,10.17,1.15,24.55,14.3,30.27,13.36,5.8,30.48.87,30.64-11.45.09-6.76-.08-27.07-.08-27.07L116.71,155a5.61,5.61,0,0,0-9.53-4l-15.9,15.57S76.21,180.3,71.92,185.54Z"/><path id="Path_202" data-name="Path 202" class="cls-3" d="M197.42,194.85c10.2,8.28,24.54-1.24,30.21-14.42,5.75-13.37.76-30.48-11.56-30.6-6.77-.06-27.08.19-27.08.19l-22.25.16a5.61,5.61,0,0,0-4,9.54l15.63,15.85S192.16,190.59,197.42,194.85Z"/><path id="Path_203" data-name="Path 203" class="cls-3" d="M51.91,138.28c-13.06,1.45-16.36,18.34-11,31.63,5.48,13.49,21.17,22,29.9,13.26,4.8-4.77,18.89-19.4,18.89-19.4l15.52-16a5.61,5.61,0,0,0-.11-7.93,5.7,5.7,0,0,0-3.91-1.59H79S58.64,137.54,51.91,138.28Z"/></g></svg>