<?xml version="1.0" encoding="utf-8"?>
<!-- Generator: Adobe Illustrator 23.0.6, SVG Export Plug-In . SVG Version: 6.00 Build 0)  -->
<svg version="1.1" id="Layer_1" xmlns="http://www.w3.org/2000/svg" xmlns:xlink="http://www.w3.org/1999/xlink" x="0px" y="0px"
	 viewBox="0 0 122.43 98.14" style="enable-background:new 0 0 122.43 98.14;" xml:space="preserve">
<style type="text/css">
	.st0{display:none;}
	.st1{display:inline;}
	.st2{fill:#B59651;}
	.st3{fill:#806630;}
	.st4{fill:#C13B3A;}
	.st5{fill:#972E2D;}
	.st6{fill:#D86B6A;}
	.st7{fill:#E0BD65;}
	.st8{fill:#3C3C3C;}
</style>
<g class="st0">
	<g class="st1">
		<path class="st2" d="M4.07,160.27l-33.67-12.55c0-0.01,0-0.02-0.01-0.03l0,0l-1.59-0.59l-1.77-5.81c0,0-0.47-1.92-1.17-1.79
			c-0.01,0-0.01,0-0.02,0c-0.98,0.31-1.52,1.36-1.2,2.34l1.35,4.22l-0.95-0.36l0,0l-1.59-0.59l-1.77-5.81c0,0-0.48-1.96-1.19-1.8
			c-0.98,0.31-1.52,1.36-1.2,2.34l1.35,4.2l-1.23-0.46c0-0.01,0-0.02-0.01-0.03l0,0l-1.59-0.59l-1.77-5.79c0,0-0.47-1.89-1.16-1.79
			c-0.01,0-0.02,0-0.02,0c-0.98,0.31-1.52,1.36-1.2,2.34l1.34,4.19l-3.45-1.3c-0.96-0.36-2.03,0.12-2.4,1.08
			c-0.2,0.93,1.1,1.47,1.1,1.47l4.18,1.55l-0.97,0.6l-3.47,2.25c-0.86,0.56-1.11,1.71-0.55,2.57c0.69,0.54,2.05-0.45,2.05-0.45
			l5.85-3.79l2.43,0.89l-0.88,0.56l-3.48,2.26c-0.86,0.56-1.11,1.71-0.55,2.57c0.97,0.53,2.21-0.44,2.21-0.44l5.75-3.68l2.3,0.87
			l-0.85,0.45l-3.47,2.25c-0.74,0.48-1.02,1.4-0.73,2.19c0.02,0.01,0.03,0.01,0.06,0.04c0.82,0.82,2.05-0.12,2.05-0.12l6.18-3.94
			L4.97,163c0.07-0.11,0.15-0.21,0.2-0.34C5.51,161.71,5.03,160.64,4.07,160.27z"/>
		<path class="st3" d="M-38.37,155.05c0.4,0.04,0.82-0.05,1.19-0.29l5.77-3.74l34.17,12.74c0.16,0.06,0.32,0.1,0.48,0.11
			c0.69,0.07,1.34-0.27,1.72-0.86l-36.61-13.21l-6.18,3.94c0,0-1.23,0.94-2.05,0.12c-0.03-0.03-0.04-0.03-0.06-0.04
			c0.05,0.13,0.11,0.26,0.19,0.38C-39.43,154.7-38.92,154.99-38.37,155.05z"/>
		<path class="st3" d="M-37.19,148.05l-5.75,3.68c0,0-1.23,0.97-2.21,0.44c0.32,0.5,0.84,0.79,1.39,0.84
			c0.4,0.04,0.82-0.05,1.19-0.29l5.77-3.75l1.07,0.4l0.85-0.45L-37.19,148.05z"/>
		<path class="st3" d="M-42.67,145.9l-5.85,3.79c0,0-1.37,0.98-2.05,0.45c0.32,0.5,0.84,0.79,1.38,0.84
			c0.4,0.04,0.82-0.05,1.19-0.29l5.77-3.74l1.1,0.41l0.88-0.56L-42.67,145.9z"/>
		<g>
			<path class="st3" d="M-38.33,139.29l1.77,5.81l1.59,0.59c-0.01-0.08-0.03-0.17-0.05-0.25l-2.16-6.75
				c-0.31-0.98-1.36-1.52-2.34-1.2C-38.81,137.32-38.33,139.29-38.33,139.29z"/>
			<path class="st3" d="M-32.98,141.29l1.77,5.81l1.59,0.59l0,0c-0.01-0.08-0.03-0.16-0.05-0.24l-2.16-6.75
				c-0.31-0.97-1.35-1.51-2.32-1.21C-33.45,139.37-32.98,141.29-32.98,141.29z"/>
			<path class="st3" d="M-43.98,137.16l1.77,5.79l1.59,0.59l0,0c-0.01-0.07-0.02-0.14-0.05-0.22l-2.16-6.75
				c-0.31-0.97-1.35-1.5-2.32-1.21C-44.45,135.27-43.98,137.16-43.98,137.16z"/>
		</g>
		<path class="st3" d="M-49.76,143.16c0,0-1.3-0.54-1.1-1.47c-0.36,0.96,0.12,2.03,1.08,2.4l3.23,1.22l0.97-0.6L-49.76,143.16z"/>
	</g>
	<g class="st1">
		<g>
			<path class="st4" d="M58.84,150.36c-4.91,22.1-23.01,29.42-31.69,29.43c-10.92,0.01-22.49-3.63-30.36-11.38
				c-6.06-10.17-10.85-25.52-6.1-38.1c1.39-3.8,3.7-7.24,6.71-9.99c6.03-5.4,19.23-10.54,28.33-6.15c0.74,0.36,1.49,0.77,2.25,1.2
				c1.63,0.91,2.89,1.57,3.98,1.8l-9.82-13.51c-1-1.38-0.7-3.3,0.68-4.3s3.3-0.7,4.3,0.68l10.21,14.04c0.16,0.22,0.28,0.46,0.37,0.7
				c3.34-1.72,7.08-2.43,10.73-2.07c1.4,0.1,2.73,0.29,4.04,0.54l-0.13,0.02C52.33,113.27,63.74,128.26,58.84,150.36z"/>
			<path class="st5" d="M73.97,138.06c0.62,9.8-2.53,23.47-8.7,33.76c-4.01,6.69-11.55,15.78-19.94,17.43
				c-6.07,1.2-9.75-3.11-13.41-3.04c-2.58,0.05-4.73,2.16-8.58,2.67c-0.71,0.09-1.41,0.13-2.12,0.12c-4.84-0.1-9.69-2.74-14.39-7.83
				c-3.76-3.86-7.12-8.13-10.04-12.76c7.87,7.75,19.44,11.39,30.36,11.38c8.68-0.01,26.78-7.32,31.69-29.43
				c4.91-22.1-6.51-37.09-6.51-37.09l0.13-0.02C65.01,115.62,73.14,124.82,73.97,138.06z"/>
			<path class="st6" d="M-2.77,129.19c-1.94,1.68-3.65,5.83-3.45,12.2s1.82,12.02,3.9,14.87c2.08,2.84,3.94,1.52,4.48,0.03
				s-1.03-6.44-1.78-9.25s-1.16-6.38-0.45-11.28c0.45-3.1,1.06-4.32,0.26-5.8C-0.61,128.47-1.8,128.35-2.77,129.19z"/>
		</g>
		<g>
			<path class="st7" d="M-53.21,94.55c1.97-13.81,16.81-2.12,26.99,2.01c8.82,3.58,12.53,4.49,21.92,5.48
				c11.87,1.25,25.23,2.71,39.28,4.87l0,0c0.09,0.01,0.18,0.03,0.27,0.04s0.18,0.03,0.27,0.04l0,0c14.05,2.19,27.22,4.82,38.92,7.22
				c9.25,1.89,13.06,2.14,22.55,1.39c10.95-0.86,28.63-7.53,26.33,6.23c-1.02,6.12-24.8,27.66-92.77,17.29l0,0
				c-0.09-0.01-0.18-0.03-0.27-0.04s-0.18-0.03-0.27-0.04l0,0C-37.92,128.41-54.08,100.69-53.21,94.55z"/>
			<path class="st2" d="M-6.17,101.99l12.59,1.16l31.09,4.88l31.11,4.73l12.35,2.7c0,0,6.08,3.93,0.97,11.02
				c-4.02,5.58-16.26,13.82-47.34,9.41v0.02c-0.47-0.07-0.91-0.15-1.37-0.22s-0.91-0.13-1.38-0.2v-0.02
				c-30.96-5.18-40.14-16.73-42.28-23.26C-13.16,103.9-6.17,101.99-6.17,101.99z"/>
			<path class="st7" d="M1.74,114.66c0,0,13.3,11.16,32.37,14.11c14.85,2.3,34.02-3.85,34.02-3.85l4.91-31.78
				c0,0-7.15,4.97-33.92,0.83C10.88,89.6,6.66,82.88,6.66,82.88L1.74,114.66z"/>
			<path class="st8" d="M1.74,114.66c0,0,4.31,9.77,32.37,14.11c26.41,4.08,34.02-3.85,34.02-3.85l0.94-6.08
				c0,0-6.14,8.16-34.38,3.79c-27.69-4.28-32-14.05-32-14.05L1.74,114.66z"/>
			<path class="st8" d="M73.09,93.46c0.64-4.12-7.64-11.47-26.63-15.29c-1.54-0.31-3.16-0.6-4.84-0.86
				c-2.21-0.34-4.33-0.6-6.34-0.78c-17.9-1.62-27.92,2.68-28.54,6.68C6.05,87.66,20.35,93.57,38.68,96.4
				C56.99,99.22,72.4,97.91,73.09,93.46z"/>
		</g>
	</g>
</g>
<g>
	<path class="st7" d="M114.59,7.93c-3-2.76-6.99-4.45-11.39-4.45c0,0-84.63,0-84.64,0c-7.97,0-14.88,5.67-16.4,13.47
		c-0.57,2.91-0.56,5.9-0.55,8.87c0.04,11.1,0.08,22.2,0.12,33.3c1.07,0.06,2.13,0.13,3.2,0.19l0,0h2.3
		c-0.02-7.07-0.05-14.13-0.07-21.2H6.09c0,0,0.15-14.81,0.15-19.84c0-2.55,2.08-4.45,3.47-6.49c1.86-2.73,7.36-4.07,7.36-4.07
		s80.49-0.59,83.33-0.52c2.84,0.07,5.76,2.21,5.76,2.21c1.87,0.65,3.68,1.71,5.25,3.37c2.85,3,3.14,9.99,3.14,14.65V59.3h5.5V20.33
		C120.06,15.42,117.94,11.01,114.59,7.93z"/>
	<path class="st2" d="M19.2,7.05c0,0-5.71,0.21-9.2,3.51c-2.02,1.91-3.73,3.8-4.32,7.71c-0.74,4.97,0.04,19.84,0.04,19.84h1.45
		c-0.01-1.83-0.01-3.66-0.02-5.49c-0.01-2.81-0.06-8.76-0.06-11.42c0-8.43,6.81-13.18,16.85-12.76h75.9c2.03,0,4.22,0.23,6.33,0.97
		c0,0-1.39-1.86-5.76-2.21C97.58,6.97,19.2,7.05,19.2,7.05z"/>
	<g>
		<path class="st4" d="M43.69,44.8c-2.31,10.4-10.82,13.84-14.91,13.84c-5.14,0.01-10.58-1.71-14.28-5.35
			c-2.85-4.78-5.1-12-2.87-17.92c0.65-1.79,1.74-3.41,3.16-4.7c2.84-2.54,9.04-4.96,13.33-2.89c0.35,0.17,0.7,0.36,1.06,0.57
			c0.77,0.43,1.36,0.74,1.87,0.85l-4.62-6.35c-0.47-0.65-0.33-1.55,0.32-2.02c0.65-0.47,1.55-0.33,2.02,0.32l4.8,6.6
			c0.08,0.1,0.13,0.22,0.17,0.33c1.57-0.81,3.33-1.14,5.05-0.97c0.66,0.04,1.29,0.14,1.9,0.25l-0.06,0.01
			C40.63,27.35,46,34.4,43.69,44.8z"/>
		<path class="st5" d="M50.82,39.01c0.29,4.61-1.19,11.04-4.09,15.88c-1.89,3.15-5.43,7.42-9.38,8.2c-2.85,0.56-4.59-1.46-6.31-1.43
			c-1.22,0.02-2.23,1.02-4.04,1.26c-0.33,0.04-0.67,0.06-1,0.06c-2.28-0.05-4.56-1.29-6.77-3.69c-1.77-1.82-3.35-3.83-4.72-6
			c3.7,3.65,9.15,5.36,14.28,5.35c4.08,0,12.6-3.45,14.91-13.84c2.31-10.4-3.06-17.45-3.06-17.45l0.06-0.01
			C46.6,28.45,50.42,32.78,50.82,39.01z"/>
		<path class="st6" d="M14.71,34.84c-0.91,0.79-1.72,2.74-1.63,5.74s0.86,5.66,1.83,6.99c0.98,1.34,1.85,0.72,2.11,0.02
			c0.26-0.7-0.49-3.03-0.84-4.35c-0.35-1.32-0.55-3-0.21-5.31c0.21-1.46,0.5-2.03,0.12-2.73C15.73,34.5,15.17,34.44,14.71,34.84z"/>
	</g>
	<g>
		<path class="st4" d="M103.79,41.01c-1.86,10.49-10.22,14.29-14.3,14.47c-5.13,0.23-10.65-1.25-14.5-4.73
			c-3.06-4.66-5.62-11.77-3.64-17.78c0.58-1.81,1.59-3.48,2.95-4.83c2.72-2.66,8.82-5.34,13.19-3.46c0.35,0.15,0.71,0.33,1.08,0.52
			c0.78,0.4,1.39,0.68,1.91,0.77l-4.89-6.15c-0.5-0.63-0.39-1.54,0.23-2.04c0.63-0.5,1.54-0.39,2.04,0.23l5.08,6.39
			c0.08,0.1,0.14,0.21,0.19,0.32c1.54-0.87,3.28-1.29,5-1.19c0.66,0.02,1.29,0.08,1.91,0.17l-0.06,0.01
			C99.99,23.7,105.65,30.52,103.79,41.01z"/>
		<path class="st5" d="M110.66,34.92c0.49,4.6-0.71,11.08-3.41,16.04c-1.75,3.23-5.11,7.65-9.02,8.6c-2.83,0.68-4.65-1.27-6.36-1.16
			c-1.21,0.08-2.18,1.11-3.98,1.43c-0.33,0.06-0.66,0.09-0.99,0.1c-2.28,0.05-4.61-1.09-6.92-3.39c-1.84-1.74-3.51-3.68-4.98-5.79
			c3.86,3.48,9.37,4.96,14.5,4.73c4.08-0.18,12.44-3.98,14.3-14.47s-3.81-17.3-3.81-17.3l0.06-0.01
			C105.99,24.55,110,28.71,110.66,34.92z"/>
		<path class="st6" d="M74.41,32.3c-0.88,0.83-1.6,2.82-1.38,5.8s1.1,5.61,2.13,6.91c1.03,1.29,1.88,0.64,2.11-0.08
			c0.23-0.71-0.62-3.01-1.02-4.31c-0.41-1.31-0.68-2.98-0.44-5.29c0.15-1.47,0.41-2.05,0-2.73C75.41,31.92,74.85,31.89,74.41,32.3z"
			/>
	</g>
	<g>
		<path class="st4" d="M72.43,40.82c-5.32,9.23-14.47,9.96-18.37,8.74c-4.9-1.53-9.58-4.8-12.02-9.39
			c-1.29-5.42-1.27-12.98,2.63-17.96c1.16-1.51,2.68-2.73,4.42-3.54c3.47-1.57,10.11-2.02,13.58,1.23c0.28,0.26,0.56,0.56,0.84,0.86
			c0.6,0.64,1.07,1.11,1.53,1.37l-2.5-7.45c-0.26-0.76,0.15-1.58,0.91-1.84c0.76-0.25,1.58,0.15,1.84,0.91l2.6,7.74
			c0.04,0.12,0.06,0.24,0.07,0.37c1.74-0.3,3.52-0.09,5.11,0.59c0.61,0.24,1.19,0.52,1.74,0.81l-0.06-0.01
			C74.74,23.26,77.75,31.59,72.43,40.82z"/>
		<path class="st5" d="M80.96,37.43c-1.11,4.49-4.45,10.18-8.67,13.92c-2.74,2.44-7.41,5.45-11.41,5.01
			c-2.89-0.32-3.94-2.77-5.59-3.26c-1.17-0.34-2.43,0.3-4.23-0.01c-0.33-0.06-0.65-0.14-0.97-0.25c-2.16-0.73-3.96-2.6-5.35-5.55
			c-1.14-2.26-2.05-4.65-2.71-7.14c2.44,4.59,7.12,7.86,12.02,9.39c3.9,1.22,13.05,0.49,18.37-8.74s2.31-17.56,2.31-17.56l0.06,0.01
			C80.1,26.1,82.45,31.37,80.96,37.43z"/>
		<path class="st6" d="M47.77,22.63c-1.11,0.48-2.46,2.1-3.27,4.99c-0.81,2.88-0.88,5.65-0.35,7.22s1.55,1.24,2.01,0.65
			s0.45-3.04,0.5-4.4c0.06-1.37,0.38-3.03,1.39-5.13c0.64-1.33,1.08-1.79,0.93-2.57C48.84,22.61,48.32,22.39,47.77,22.63z"/>
	</g>
	<path class="st7" d="M20.82,91.55l81.08,0.07c0,0,11.96-0.69,14.87-9.9s-0.01-13.59-0.01-13.59l0.01-30.02H1.62v38.97
		c0,4.92,2.12,9.33,5.47,12.41C14.54,92.19,20.82,91.55,20.82,91.55z"/>
	<polygon class="st7" points="119.98,38.11 116.77,38.11 119.98,38.3 	"/>
	<path class="st2" d="M103.12,93.95c7.97,0,14.88-5.67,16.4-13.47c0.57-2.91,0.56-5.9,0.55-8.87c-0.04-11.1,0.04-38.21,0-49.31
		c0.71-11.99-8.45-16.55-8.45-16.55s6.26,6.33,5.93,16.24c-0.12,3.61-0.8,16.13-0.8,16.13s0.12,21.93-0.11,32.9
		c-0.1,4.86,0.3,9.8-2.95,13.61c-2.66,3.12-5.49,5.95-12.42,6.89c-1.92,0.26-4.03,0.11-5.97,0.1c-1.42,0-2.84,0-4.26,0
		c-3.56,0-7.12-0.01-10.68-0.01c-8.56-0.01-17.12-0.01-25.68-0.02c-7.72-0.01-15.44-0.01-23.15-0.02c-3.56,0-7.12-0.01-10.68-0.01
		c-0.01,0-0.02,0-0.03,0c0,0-6.28,0.64-13.72-2.06c3,2.76,6.99,4.45,11.39,4.45C18.48,93.95,103.11,93.95,103.12,93.95z"/>
</g>
</svg>
