<svg id="Layer_1" data-name="Layer 1" xmlns="http://www.w3.org/2000/svg" viewBox="0 0 260.55 253.74"><defs><style>.cls-1{fill:#f9f39c;}</style></defs><title>Lemon</title><g id="Group_132" data-name="Group 132"><path id="Path_216" data-name="Path 216" class="cls-1" d="M128,126.54h.23v-.23Z"/><path id="Path_217" data-name="Path 217" class="cls-1" d="M128.22,126.77v-.21H128Z"/><path id="Path_218" data-name="Path 218" class="cls-1" d="M128,126.55h0Z"/><path id="Path_219" data-name="Path 219" class="cls-1" d="M141.79,28c1.34-13.07,18.21-16.5,31.55-11.21,13.53,5.37,22.12,21,13.5,29.79-4.74,4.84-19.25,19-19.25,19L151.76,81.28a5.61,5.61,0,0,1-9.55-3.94L142,55.08S141.11,34.74,141.79,28Z"/><path id="Path_220" data-name="Path 220" class="cls-1" d="M68,47c-8.32-10.16,1.14-24.55,14.3-30.26,13.35-5.8,30.48-.88,30.64,11.44.09,6.77-.09,27.07-.09,27.07l-.06,22.26a5.61,5.61,0,0,1-9.53,4L87.36,65.89S72.29,52.19,68,47Z"/><path id="Path_221" data-name="Path 221" class="cls-1" d="M209.75,64.7C220,56.42,234.29,65.94,240,79.12c5.75,13.37.76,30.48-11.56,30.6-6.77.06-27.08-.19-27.08-.19l-22.25-.16a5.6,5.6,0,0,1-3.95-9.54L190.74,84S204.49,69,209.75,64.7Z"/><path id="Path_222" data-name="Path 222" class="cls-1" d="M26.88,114.78c-13.06-1.44-16.36-18.34-11-31.63,5.48-13.49,21.17-22,29.9-13.26,4.8,4.77,18.88,19.4,18.88,19.4l15.53,15.95a5.6,5.6,0,0,1-4,9.52H54S33.61,115.52,26.88,114.78Z"/><path id="Path_223" data-name="Path 223" class="cls-1" d="M146.24,223.65c1.34,13.07,18.21,16.5,31.54,11.21,13.54-5.37,22.12-21,13.5-29.79-4.73-4.83-19.25-19-19.25-19l-15.82-15.65a5.61,5.61,0,0,0-9.55,3.94l-.19,22.25S145.55,216.92,146.24,223.65Z"/><path id="Path_224" data-name="Path 224" class="cls-1" d="M69.86,205.91c-8.32,10.17,1.14,24.55,14.3,30.27,13.35,5.8,30.48.88,30.64-11.44.09-6.77-.08-27.08-.08-27.08l-.07-22.25a5.61,5.61,0,0,0-5.63-5.59,5.53,5.53,0,0,0-3.9,1.6L89.21,187S74.14,200.67,69.86,205.91Z"/><path id="Path_225" data-name="Path 225" class="cls-1" d="M207.57,184.39c10.2,8.28,24.55-1.24,30.21-14.42,5.76-13.37.76-30.48-11.56-30.6-6.77-.06-27.07.19-27.07.19l-22.26.15a5.61,5.61,0,0,0-3.95,9.55l15.62,15.85S202.32,180.12,207.57,184.39Z"/><path id="Path_226" data-name="Path 226" class="cls-1" d="M29.22,144.71c-13.06,1.44-16.36,18.34-11,31.63,5.48,13.49,21.17,21.95,29.9,13.26C53,184.82,67,170.2,67,170.2l15.52-15.95a5.6,5.6,0,0,0-4-9.52H56.29S36,144,29.22,144.71Z"/></g></svg>