<?xml version="1.0" encoding="utf-8"?>
<!-- Generator: Adobe Illustrator 23.0.6, SVG Export Plug-In . SVG Version: 6.00 Build 0)  -->
<svg version="1.1" id="Layer_1" xmlns="http://www.w3.org/2000/svg" xmlns:xlink="http://www.w3.org/1999/xlink" x="0px" y="0px"
	 viewBox="0 0 390.04 207.06" style="enable-background:new 0 0 390.04 207.06;" xml:space="preserve">
<style type="text/css">
	.st0{fill:none;}
</style>
<path class="st0" d="M115.61,181.29c0-0.46,0.01-0.92,0.03-1.37c0-14.63,0-25.47,0-30.8c0-1.5,0-3,0-4.5c-7.21,0-13.85,0-20.8,0
	c0,1.63,0,3.04,0.01,4.44c0,5.82,0,18.34-0.01,35.26c0.2,6.22,0.07,12.45,0.03,18.68h20.77c0-6.7,0-12.98,0-18.75
	C115.63,183.27,115.62,182.28,115.61,181.29z"/>
<path class="st0" d="M205.05,183.52c-0.02-0.83,0-1.64,0.05-2.44c0-15.19,0-26.44,0-31.89c0-1.5,0-3,0-4.58c-7.15,0-13.78,0-20.76,0
	c0,1.86,0,3.51,0,5.15c0,5.41,0,16.59,0,31.69c0.16,1.68,0.19,3.4,0.09,5.18c-0.04,0.66-0.06,1.31-0.09,1.97c0,4.53,0,9.35,0,14.4
	h20.76c0-5.88,0-11.44,0-16.6C205.09,185.44,205.07,184.48,205.05,183.52z"/>
<path class="st0" d="M294.62,181.91c0-0.38,0.01-0.76,0.02-1.13c0-15.03,0-26.17,0-31.59c0-1.51,0-3.01,0-4.61
	c-7.15,0-13.78,0-20.83,0c0,1.47,0,2.75,0.01,4.04c0,10.49,0,20.98,0,31.47c0.03,0.48,0.04,0.96,0.03,1.45
	c-0.01,1-0.02,1.99-0.03,2.99c0,4.25,0,10.56,0,18.47h20.82c0-6.28,0-12.2,0-17.66C294.63,184.19,294.63,183.05,294.62,181.91z"/>
<path d="M94.84,178.32c0.01-16.92,0.01-29.44,0.01-35.26c-0.01-1.4-0.01-2.81-0.01-4.44c6.95,0,13.59,0,20.8,0c0,1.5,0,3,0,4.5
	c0,5.33,0,16.17,0,30.8c-0.02,0.45-0.03,0.91-0.03,1.37c0.01,0.99,0.02,1.98,0.03,2.96c0,5.77,0,12.05,0,18.75h68.7
	c0-5.05,0-9.87,0-14.4c0.03-0.66,0.05-1.31,0.09-1.97c0.1-1.78,0.07-3.5-0.09-5.18c0-15.1,0-26.28,0-31.69c0-1.64,0-3.29,0-5.15
	c6.98,0,13.61,0,20.76,0c0,1.58,0,3.08,0,4.58c0,5.45,0,16.7,0,31.89c-0.05,0.8-0.07,1.61-0.05,2.44c0.02,0.96,0.04,1.92,0.05,2.88
	c0,5.16,0,10.72,0,16.6h68.72c0-7.91,0-14.22,0-18.47c0.01-1,0.02-1.99,0.03-2.99c0.01-0.49,0-0.97-0.03-1.45
	c0-10.49,0-20.98,0-31.47c-0.01-1.29-0.01-2.57-0.01-4.04c7.05,0,13.68,0,20.83,0c0,1.6,0,3.1,0,4.61c0,5.42,0,16.56,0,31.59
	c-0.01,0.37-0.02,0.75-0.02,1.13c0.01,1.14,0.01,2.28,0.02,3.43c0,5.46,0,11.38,0,17.66h68.65c0-2.67,0.01-5.27,0.01-7.8
	c0.03-0.43,0.07-0.86,0.12-1.29c0.48-4.2,0.43-8.21-0.11-12.09c0.01-15.72,0.02-27.34,0.02-32.85c0-1.41,0-2.82,0-4.38
	c1.53-0.1,2.7-0.14,3.87-0.26c6.42-0.65,10.97-5.49,11.03-11.94c0.08-9.44,0.03-18.88,0.02-28.32c-0.01-8.57-4.28-13.04-12.77-13.4
	c-0.58-0.02-1.15-0.12-2.15-0.22c0-5.3-0.49-10.58,0.1-15.74c1.46-12.88-2-24.07-9.53-34.52c-4.94-6.85-9.15-14.28-13.12-21.74
	c-5.83-10.96-18.02-10.2-23.57,0.15c-5.97,11.13-12.83,21.8-19.44,32.58c-2.21,3.6-3.16,7.37-3.13,11.53
	c0.07,9.18,0.02,18.36,0.02,27.75c-6.96,0-13.6,0-20.83,0c0-1.24,0-2.5,0-3.76c0-8.12-0.07-16.25,0.03-24.37
	c0.05-4.06-0.92-7.69-3.06-11.19c-6.61-10.79-13.39-21.48-19.45-32.57c-6.03-11.01-18.04-10.37-23.59-0.13
	c-5.79,10.69-12.28,21.02-18.74,31.32c-2.85,4.55-4.05,9.25-3.94,14.55c0.18,8.59,0.05,17.19,0.05,26.07c-6.95,0-13.66,0-20.76,0
	c0-7.73-0.33-15.36,0.09-22.96c0.42-7.61-1.51-14.17-5.67-20.55c-6.19-9.48-11.74-19.39-17.62-29.08
	c-6.05-9.97-16.34-9.96-22.4,0.03C132,22.95,125.4,34.16,118.61,45.25c-2.07,3.38-3.05,6.89-3,10.84
	c0.09,8.12,0.03,16.25,0.03,24.37c0,1.28,0,2.57,0,4.03c-7.05,0-13.68,0-20.61,0c-0.06-1.38-0.17-2.65-0.17-3.92
	c-0.02-8.12,0.27-16.26-0.14-24.37c-0.18-3.55-1.12-7.4-2.86-10.46C85.4,34.33,78.48,23.16,71.7,11.93
	C65.56,1.76,55.25,1.8,49.09,12c-6.72,11.13-13.33,22.34-20.11,33.43c-2.01,3.28-2.92,6.67-2.88,10.5
	c0.11,9.42,0.04,18.84,0.04,28.71c-7.26-0.76-12.02,2.45-14.93,8.65c0,11.95,0,23.9,0,35.85c2.51,6.62,7.33,9.74,14.93,9.27
	c0,1.59,0,2.97,0,4.34c0,5.36,0,16.23,0,30.89c-0.03,0.49-0.04,0.99-0.03,1.5c0.01,1.3,0.03,2.61,0.03,3.91c0,5.55,0,11.57,0,17.95
	h68.73C94.91,190.77,95.04,184.54,94.84,178.32z"/>
</svg>
