<svg id="Layer_1" data-name="Layer 1" xmlns="http://www.w3.org/2000/svg" viewBox="0 0 220.22 262.35"><defs><style>.cls-1{fill:#cbba2d;}.cls-2{fill:#eae350;}.cls-3{fill:#f9f39c;}</style></defs><title>Lemon</title><g id="Group_128" data-name="Group 128"><path id="Path_152" data-name="Path 152" class="cls-1" d="M108.07,127.12h.22v-.24Z"/><path id="Path_153" data-name="Path 153" class="cls-2" d="M108.29,127.13l93.7.7a92.84,92.84,0,0,0-28.38-66.75L108.29,126.9Z"/><path id="Path_154" data-name="Path 154" class="cls-2" d="M173.61,61.08a92.79,92.79,0,0,0-64.74-26.2h-1l.45,92Z"/><path id="Path_155" data-name="Path 155" class="cls-1" d="M108.29,127.34v-.21h-.21Z"/><path id="Path_156" data-name="Path 156" class="cls-1" d="M108.06,127.13h0Z"/><path id="Path_157" data-name="Path 157" class="cls-2" d="M108.29,126.89l-.45-92A92.83,92.83,0,0,0,43,62.18l65.07,64.94Z"/><path id="Path_158" data-name="Path 158" class="cls-2" d="M202,127.82l-93.7-.7v.21l66.53,66.4A92.83,92.83,0,0,0,202,128Z"/><path id="Path_159" data-name="Path 159" class="cls-2" d="M108.75,221.12h.12a92.83,92.83,0,0,0,65.95-27.39l-66.53-66.4Z"/><path id="Path_160" data-name="Path 160" class="cls-2" d="M108.07,127.12,43,62.17a92.81,92.81,0,0,0-27.24,64.27l92.3.69Z"/><path id="Path_161" data-name="Path 161" class="cls-2" d="M15.76,126.44c0,.52,0,1,0,1.56a92.85,92.85,0,0,0,26.69,65.25l65.63-66.12Z"/><path id="Path_162" data-name="Path 162" class="cls-2" d="M108.08,127.13h0L42.43,193.25a92.85,92.85,0,0,0,66.32,27.87l-.46-93.79Z"/><path id="Path_163" data-name="Path 163" class="cls-3" d="M109.12,59.9c1.34-13.07,18.21-16.5,31.54-11.21,13.54,5.37,22.12,21,13.5,29.79-4.73,4.84-19.25,19-19.25,19l-15.82,15.65a5.61,5.61,0,0,1-9.55-3.94L109.35,87S108.43,66.63,109.12,59.9Z"/><path id="Path_164" data-name="Path 164" class="cls-3" d="M62,79.57C53.64,69.4,63.1,55,76.26,49.3c13.35-5.8,30.48-.87,30.64,11.45.09,6.77-.09,27.07-.09,27.07l-.06,22.26a5.61,5.61,0,0,1-9.53,4L81.31,98.51S66.24,84.81,62,79.57Z"/><path id="Path_165" data-name="Path 165" class="cls-3" d="M157,80.31c10.2-8.29,24.55,1.23,30.21,14.41,5.76,13.38.76,30.49-11.56,30.6-6.77.07-27.07-.18-27.07-.18L126.27,125a5.61,5.61,0,0,1-4-9.55L138,99.59S151.7,84.57,157,80.31Z"/><path id="Path_166" data-name="Path 166" class="cls-3" d="M41.22,125.34c-13.06-1.44-16.36-18.34-11-31.63,5.48-13.49,21.17-21.95,29.9-13.26C65,85.22,79,99.85,79,99.85l15.53,16a5.61,5.61,0,0,1-4,9.52H68.29S48,126.09,41.22,125.34Z"/><path id="Path_167" data-name="Path 167" class="cls-3" d="M110,194.83c1.34,13.07,18.21,16.5,31.55,11.22,13.53-5.38,22.11-21,13.5-29.8-4.74-4.83-19.26-19-19.26-19L120,141.57a5.61,5.61,0,0,0-9.55,3.94l-.19,22.25S109.35,188.1,110,194.83Z"/><path id="Path_168" data-name="Path 168" class="cls-3" d="M62.15,175.65c-8.32,10.17,1.15,24.55,14.3,30.27,13.36,5.8,30.48.87,30.64-11.45.09-6.76-.08-27.07-.08-27.07l-.07-22.26a5.62,5.62,0,0,0-9.53-4L81.5,156.72S66.44,170.41,62.15,175.65Z"/><path id="Path_169" data-name="Path 169" class="cls-3" d="M157.87,174.43c10.2,8.28,24.54-1.24,30.21-14.42,5.75-13.38.76-30.48-11.56-30.6-6.77-.06-27.07.19-27.07.19l-22.26.15a5.61,5.61,0,0,0-4,9.55l15.62,15.85S152.62,170.16,157.87,174.43Z"/><path id="Path_170" data-name="Path 170" class="cls-3" d="M42.14,128.39c-13.06,1.45-16.36,18.34-11,31.63,5.48,13.49,21.17,21.95,29.9,13.26,4.8-4.77,18.88-19.4,18.88-19.4l15.53-15.95a5.61,5.61,0,0,0-.11-7.93,5.7,5.7,0,0,0-3.91-1.59H69.21S48.87,127.65,42.14,128.39Z"/></g></svg>