<?xml version="1.0" encoding="utf-8"?>
<!-- Generator: Adobe Illustrator 23.0.6, SVG Export Plug-In . SVG Version: 6.00 Build 0)  -->
<svg version="1.1" id="Layer_1" xmlns="http://www.w3.org/2000/svg" xmlns:xlink="http://www.w3.org/1999/xlink" x="0px" y="0px"
	 viewBox="0 0 612 589.06" style="enable-background:new 0 0 612 589.06;" xml:space="preserve">
<path d="M550.64,206.85c-27.19-27.11-62.08-41.78-97.61-44.04c14.18-24.68,10.71-56.72-10.41-77.77
	c-22.33-22.27-56.9-24.76-81.99-7.53c-3.23-4.63-6.89-9.06-11.03-13.19c-37.55-37.43-98.33-37.34-135.76,0.2
	c-7.54,7.56-13.52,16.07-18.02,25.13c-29.32-17.04-67.52-12.99-92.59,12.16c-23.31,23.38-28.36,58.05-15.19,86.33
	c-11.79,6.13-22.85,14.14-32.73,24.05C3.65,264.01,3.77,347.91,55.6,399.57c16.09,16.04,35.27,27.08,55.61,33.14
	c-3.3,16.09,1.3,33.48,13.8,45.95c14.82,14.78,36.53,18.44,54.77,10.99c46.95,36.67,114.95,33.35,158.07-9.9
	c10.78-10.82,19.06-23.18,24.84-36.38c58.77,36.83,137.22,29.62,188.26-21.57C610.23,362.36,610.08,266.12,550.64,206.85z"/>
</svg>
