<?xml version="1.0" encoding="utf-8"?>
<!-- Generator: Adobe Illustrator 23.0.6, SVG Export Plug-In . SVG Version: 6.00 Build 0)  -->
<svg version="1.1" id="Layer_1" xmlns="http://www.w3.org/2000/svg" xmlns:xlink="http://www.w3.org/1999/xlink" x="0px" y="0px"
	 viewBox="0 0 612 589.06" style="enable-background:new 0 0 612 589.06;" xml:space="preserve">
<path d="M535,316c0-28.96-19.54-53.34-46.16-60.7c2.68-7.6,4.16-15.77,4.16-24.3c0-40.32-32.68-73-73-73
	c-26.29,0-49.33,13.91-62.19,34.76C346.86,178.33,329.52,169,310,169c-26.13,0-48.35,16.71-56.58,40.03
	c-9.73-5.66-20.72-9.38-32.47-10.59c0.02-0.65,0.05-1.29,0.05-1.94c0-40.04-32.46-72.5-72.5-72.5S76,156.46,76,196.5
	c0,25.07,12.72,47.16,32.06,60.18C88.69,260.19,74,277.12,74,297.5c0,22.92,18.58,41.5,41.5,41.5c11.86,0,22.55-4.98,30.11-12.96
	C160.34,347.17,184.8,361,212.5,361c22.98,0,43.71-9.52,58.53-24.82C271.67,378.16,305.87,412,348,412c12.67,0,24.61-3.08,35.15-8.5
	c2.06,30.99,27.84,55.5,59.35,55.5c32.86,0,59.5-26.64,59.5-59.5c0-9.08-2.04-17.68-5.68-25.37C519.04,364.61,535,342.17,535,316z"
	/>
</svg>
