<?xml version="1.0" encoding="utf-8"?>
<svg version="1.1" id="Layer_1" xmlns="http://www.w3.org/2000/svg" xmlns:xlink="http://www.w3.org/1999/xlink" x="0px" y="0px"
	 viewBox="0 0 231 261.1" style="enable-background:new 0 0 231 261.1;" xml:space="preserve">
<style type="text/css">
	.st0{fill:#FFFFFF;}
</style>
<path class="st0" d="M115.1,251.2c-18.3,0-36.7,0.1-55,0c-14-0.1-23.2-8.4-24.6-22.4c-3.7-38.1-7.2-76.2-10.8-114.4
	c-0.5-5.5-1.2-10.9-1.6-16.4c-0.2-3.1-1.7-4.5-4.8-4.3c-1.3,0.1-2.7,0-4-0.1c-6.7-0.4-9.5-2.9-9.8-9.4c-0.3-5.8-0.3-11.7,0.2-17.5
	C6.1,52,15.9,42.8,30.9,42.4c12.5-0.3,25-0.1,37.5-0.1c6.6,0,6.6,0,6.7-6.6c0.4-18.3,10.5-28.2,28.9-28.3c8.2,0,16.3-0.1,24.5,0
	c15.4,0.2,25.7,10.2,26.3,25.5c0.4,9.3-1.4,9.4,9.7,9.3c10.7,0,21.3,0,32,0c18.9,0.1,28.9,10.1,29,29.2c0,4.3,0.1,8.7-0.1,13
	c-0.3,6.1-2.9,8.6-9,9.1c-1.2,0.1-2.3,0.2-3.5,0.1c-4.2-0.4-5.9,1.4-6.3,5.6c-2.7,30.4-5.5,60.7-8.3,91c-1.1,12.3-2.2,24.5-3.5,36.8
	c-1.8,16.5-10.5,24.1-27.2,24.2C150.1,251.3,132.6,251.2,115.1,251.2z M115.3,93.7C115.3,93.7,115.3,93.7,115.3,93.7
	c-23.3,0-46.7,0.1-70,0c-4.6,0-6.1,1.4-5.5,6.2c1.2,9.2,1.8,18.6,2.7,27.8c3.1,32.8,6.2,65.7,9.3,98.5c0.6,6.4,3,8.5,9.4,8.5
	c35.8,0,71.7,0,107.5,0c6.8,0,9.1-2.2,9.9-9.2c0.6-6,1-12,1.5-17.9c3.3-35.8,6.7-71.6,10-107.4c0.6-6.3,0.5-6.4-5.8-6.4
	C161.2,93.7,138.3,93.7,115.3,93.7z M114.7,77.4c17.2,0,34.3,0,51.5,0c12.7,0,25.3-0.1,38,0c3.5,0,5.1-1.2,5.1-4.9
	c0.2-10.1-3-13.8-13.1-13.9c-54.1-0.1-108.2,0-162.3,0c-1.7,0-3.4,0.1-5,0.4c-6,1.4-8.7,6.4-7.9,14.2c0.6,6.5,5.7,4,8.9,4
	C58,77.5,86.4,77.4,114.7,77.4z M114.6,42.3c6.5,0,13,0.1,19.5-0.1c1.4,0,3.5-0.9,4-2c3.5-7.7-1.9-16.1-10.4-16.2
	c-7.8-0.1-15.6,0-23.5,0c-9.6,0-12.9,3.5-12.8,13c0,3.8,1.2,5.5,5.2,5.4C102.6,42.2,108.6,42.3,114.6,42.3z"/>
</svg>
